<svg xmlns="http://www.w3.org/2000/svg" version="1.1" xmlns:xlink="http://www.w3.org/1999/xlink"
  width="1000" height="1000">
  <style>
    #light-icon {
    display: inline;
    }
    #dark-icon {
    display: none;
    }

    @media (prefers-color-scheme: dark) {
    #light-icon {
    display: none;
    }
    #dark-icon {
    display: inline;
    }
    }
  </style>
  <g id="light-icon">
    <svg xmlns="http://www.w3.org/2000/svg" version="1.1" xmlns:xlink="http://www.w3.org/1999/xlink"
      width="1000" height="1000">
      <g>
        <g transform="matrix(0.9765625,0,0,0.9765625,0,239.84375)">
          <svg xmlns="http://www.w3.org/2000/svg" version="1.1"
            xmlns:xlink="http://www.w3.org/1999/xlink" width="1024" height="532.8">
            <svg id="Layer_1" xmlns="http://www.w3.org/2000/svg" baseProfile="tiny" version="1.2"
              xmlns:i="http://ns.adobe.com/AdobeIllustrator/10.0/" viewBox="0 0 1024 532.8">
              <!-- Generator: Adobe Illustrator 29.5.1, SVG Export Plug-In . SVG Version: 2.1.0
              Build 141)  -->
              <g>
                <path
                  d="M640.3,198.4c4.4-14.7,6-28.3,4.8-40.6-1.4-13.3-6-24.8-13.8-34.2-7.8-9.4-18.3-16.2-31.1-20.1-11.8-3.7-28.3-5.5-50.7-5.5h-69.7c-15.2,0-27.8,3.6-37.5,10.6-9.8,7.1-17,18.4-21.6,33.6l-62.2,206.6c-4.6,15.2-4,27.3,1.7,36.8,3.5,5.9,12.2,15.8,30.5,15.8s22.1-4,31.7-11.9c9.2-7.5,15.9-18.4,20.1-32.1l19.5-64.9h38.3c36.2,0,66.5-8,90.1-23.7,24-16.1,40.9-39.8,50.1-70.4ZM555.4,190.6c-2.2,7.4-5.5,13-9.9,17.3-4.5,4.4-10.2,7.5-17.2,9.5-8,2.3-17.8,3.4-29.1,3.4h-15.8l15.4-51.1h25.1c25.1,0,31.1,4.6,31.7,5.1,1.9,3.5,1.9,8.8-.2,15.8Z"
                  fill="#2e3191"></path>
                <path
                  d="M892.5,111.4c-6.6-8.8-17.5-13.3-32.6-13.3h-152.5c-11.5,0-21.4,2.9-29.4,8.6-8.2,5.8-13.8,13.6-16.6,23.2-4.4,14.8,1.2,24.4,5,28.9,6.2,7.2,15.9,10.9,28.8,10.9h77.5l-156.5,137.7c-3,2.6-6.5,5.6-10.5,9.1-4.1,3.6-7.5,6.7-10,9.1-3.1,3-5.8,6.2-8.1,9.6-2.6,3.8-4.7,8.1-6,12.7-5.3,17.6,0,29,5.4,35.5,7.4,9,19.6,13.6,36.2,13.6h174.1c11.6,0,21.6-2.9,29.5-8.5,8.1-5.8,13.7-13.7,16.6-23.5,4.6-15.3-1.2-24.9-5.1-29.2-6.2-7-15.6-10.4-28.8-10.4h-100.9l144-126.2c14.1-12.2,23.5-20.9,28.8-26.6,6.5-7,11.4-16.1,14.7-27.1,4.2-14,3.1-25.5-3.4-34.2Z"
                  fill="#2e3191"></path>
                <path
                  d="M390.5,198.4c4.4-14.7,6-28.4,4.8-40.6-1.4-13.3-6-24.8-13.8-34.2-7.8-9.4-18.3-16.2-31.1-20.1-11.8-3.7-28.3-5.5-50.7-5.5h-69.7c-15.2,0-27.8,3.6-37.5,10.6-9.8,7.1-17,18.4-21.6,33.6l-62.2,206.6c-4.6,15.2-4,27.3,1.7,36.8,3.5,5.9,12.2,15.8,30.5,15.8s22.1-4,31.7-11.9c9.2-7.6,15.9-18.4,20.1-32.1l19.5-64.9h38.3c36.2,0,66.5-8,90.1-23.7,24-16.1,40.9-39.8,50.1-70.5ZM305.6,190.6c-2.2,7.4-5.5,13-9.9,17.3-4.5,4.4-10.2,7.5-17.2,9.5-8,2.3-17.8,3.4-29.1,3.4h-15.8l15.4-51.1h25.1c25.1,0,31.1,4.6,31.7,5.1,1.9,3.5,1.9,8.8-.2,15.8Z"
                  fill="#2e3191"></path>
              </g>
              <g>
                <path
                  d="M256.5,511.7c-144.9,0-203.7-48.1-247.7-92,17.4,44,71.8,113.2,241,113.2s338.9-84.3,338.9-84.3c0,0-184.8,63.1-332.2,63.1Z"
                  fill="#ec1c24"></path>
                <path
                  d="M288.8,498.4c-228.7,0-234.4-114.3-234.4-114.3-2.3-14.9-12.1-26.9-26.9-26.9S.5,369.2.5,384c0,0,.1,15.1,8.3,35.6,44,43.9,102.8,92,247.7,92s332.2-63.1,332.2-63.1c0,0-154,49.8-299.9,49.8Z"
                  fill="#2e3191"></path>
              </g>
              <g>
                <path
                  d="M767.8,21.1c144.9,0,203.7,48.1,247.7,92C998,69.1,943.7,0,774.4,0s-338.9,84.3-338.9,84.3c0,0,184.8-63.1,332.2-63.1Z"
                  fill="#ec1c24"></path>
                <path
                  d="M735.5,34.4c228.7,0,234.4,114.3,234.4,114.3,2.3,14.9,12.1,26.9,26.9,26.9s26.9-12.1,26.9-26.9c0,0-.1-15.1-8.3-35.6-44-43.9-102.8-92-247.7-92s-332.2,63.1-332.2,63.1c0,0,154-49.8,299.9-49.8Z"
                  fill="#2e3191"></path>
              </g>
              <g>
                <path
                  d="M203.9,462l2.7-18.4c.7-4.8,1.7-11,3-17.4h-.2c-2.5,5.8-5.2,11.9-7.7,16.8l-9.1,18.3h-7.4l-1.6-18.1c-.4-4.9-.7-11.1-1-17h-.1c-1.3,5.9-2.6,12.7-3.7,17.4l-4.4,18.4h-8.7l11.2-44.7h12.8l1.4,17c.3,4.2.7,9.2.8,14.2h.3c1.7-5,4.1-10.2,6-14.2l8.3-17h12.9l-6,44.7h-9.3Z"
                  fill="#00a551"></path>
                <path
                  d="M259.8,450.4l-5.2,11.6h-10.2l21.8-44.7h12.3l5.2,44.7h-10l-.9-11.6h-12.9ZM272.2,443.1l-.9-9.6c-.2-2.5-.4-6-.6-8.7h-.2c-1.1,2.7-2.4,6.2-3.6,8.7l-4.4,9.6h9.6Z"
                  fill="#00a551"></path>
                <path d="M332.7,417.4l-8.5,44.7h-9.5l8.5-44.7h9.5Z" fill="#00a551"></path>
                <path
                  d="M366.1,462l-1.7-44.7h9.7v19.9c0,5.4-.1,10.5-.3,14.5h.1c1.6-4.4,3.2-8.9,5.2-14.4l8-20h10.5v19.9c-.2,5.4-.3,9.8-.6,14.2h.1c1.5-4.6,3.2-9.4,5-14.2l7.7-19.9h10.1l-19.7,44.7h-10.4l-.3-18.3c0-5.3,0-9.8.3-14.8h-.1c-1.6,4.8-3.2,9.6-5.4,15l-7.7,18.1h-10.6Z"
                  fill="#00a551"></path>
                <path
                  d="M451.7,418.2c2.8-.7,7.3-1.1,11.6-1.1s8.6.7,11.9,3c3,2,4.8,5.2,4.8,9.5s-2.6,9.9-6,12.5c-3.6,2.8-8.9,4.2-14.3,4.2s-2.9-.2-3.9-.3l-3,16h-9.3l8.3-43.8ZM457.2,438.2c1.1.2,2.1.3,3.7.3,5.7,0,9.5-3.6,9.5-8.1s-3-5.6-6.8-5.6-3.1.1-3.9.3l-2.5,13.2Z"
                  fill="#00a551"></path>
              </g>
            </svg>
          </svg>
        </g>
      </g>
    </svg>
  </g>
  <g id="dark-icon">
    <svg xmlns="http://www.w3.org/2000/svg" version="1.1" xmlns:xlink="http://www.w3.org/1999/xlink"
      width="1000" height="1000">
      <g>
        <g transform="matrix(0.9765625,0,0,0.9765625,0,239.84375)">
          <svg xmlns="http://www.w3.org/2000/svg" version="1.1"
            xmlns:xlink="http://www.w3.org/1999/xlink" width="1024" height="532.8">
            <svg id="Layer_1" xmlns="http://www.w3.org/2000/svg" baseProfile="tiny" version="1.2"
              xmlns:i="http://ns.adobe.com/AdobeIllustrator/10.0/" viewBox="0 0 1024 532.8">
              <!-- Generator: Adobe Illustrator 29.5.1, SVG Export Plug-In . SVG Version: 2.1.0
              Build 141)  -->
              <g>
                <path
                  d="M640.3,198.4c4.4-14.7,6-28.3,4.8-40.6-1.4-13.3-6-24.8-13.8-34.2-7.8-9.4-18.3-16.2-31.1-20.1-11.8-3.7-28.3-5.5-50.7-5.5h-69.7c-15.2,0-27.8,3.6-37.5,10.6-9.8,7.1-17,18.4-21.6,33.6l-62.2,206.6c-4.6,15.2-4,27.3,1.7,36.8,3.5,5.9,12.2,15.8,30.5,15.8s22.1-4,31.7-11.9c9.2-7.5,15.9-18.4,20.1-32.1l19.5-64.9h38.3c36.2,0,66.5-8,90.1-23.7,24-16.1,40.9-39.8,50.1-70.4ZM555.4,190.6c-2.2,7.4-5.5,13-9.9,17.3-4.5,4.4-10.2,7.5-17.2,9.5-8,2.3-17.8,3.4-29.1,3.4h-15.8l15.4-51.1h25.1c25.1,0,31.1,4.6,31.7,5.1,1.9,3.5,1.9,8.8-.2,15.8Z"
                  fill="#fff"></path>
                <path
                  d="M892.5,111.4c-6.6-8.8-17.5-13.3-32.6-13.3h-152.5c-11.5,0-21.4,2.9-29.4,8.6-8.2,5.8-13.8,13.6-16.6,23.2-4.4,14.8,1.2,24.4,5,28.9,6.2,7.2,15.9,10.9,28.8,10.9h77.5l-156.5,137.7c-3,2.6-6.5,5.6-10.5,9.1-4.1,3.6-7.5,6.7-10,9.1-3.1,3-5.8,6.2-8.1,9.6-2.6,3.8-4.7,8.1-6,12.7-5.3,17.6,0,29,5.4,35.5,7.4,9,19.6,13.6,36.2,13.6h174.1c11.6,0,21.6-2.9,29.5-8.5,8.1-5.8,13.7-13.7,16.6-23.5,4.6-15.3-1.2-24.9-5.1-29.2-6.2-7-15.6-10.4-28.8-10.4h-100.9l144-126.2c14.1-12.2,23.5-20.9,28.8-26.6,6.5-7,11.4-16.1,14.7-27.1,4.2-14,3.1-25.5-3.4-34.2Z"
                  fill="#fff"></path>
                <path
                  d="M390.5,198.4c4.4-14.7,6-28.4,4.8-40.6-1.4-13.3-6-24.8-13.8-34.2-7.8-9.4-18.3-16.2-31.1-20.1-11.8-3.7-28.3-5.5-50.7-5.5h-69.7c-15.2,0-27.8,3.6-37.5,10.6-9.8,7.1-17,18.4-21.6,33.6l-62.2,206.6c-4.6,15.2-4,27.3,1.7,36.8,3.5,5.9,12.2,15.8,30.5,15.8s22.1-4,31.7-11.9c9.2-7.6,15.9-18.4,20.1-32.1l19.5-64.9h38.3c36.2,0,66.5-8,90.1-23.7,24-16.1,40.9-39.8,50.1-70.5ZM305.6,190.6c-2.2,7.4-5.5,13-9.9,17.3-4.5,4.4-10.2,7.5-17.2,9.5-8,2.3-17.8,3.4-29.1,3.4h-15.8l15.4-51.1h25.1c25.1,0,31.1,4.6,31.7,5.1,1.9,3.5,1.9,8.8-.2,15.8Z"
                  fill="#fff"></path>
              </g>
              <g>
                <path
                  d="M256.5,511.7c-144.9,0-203.7-48.1-247.7-92,17.4,44,71.8,113.2,241,113.2s338.9-84.3,338.9-84.3c0,0-184.8,63.1-332.2,63.1Z"
                  fill="#fff"></path>
                <path
                  d="M288.8,498.4c-228.7,0-234.4-114.3-234.4-114.3-2.3-14.9-12.1-26.9-26.9-26.9S.5,369.2.5,384c0,0,.1,15.1,8.3,35.6,44,43.9,102.8,92,247.7,92s332.2-63.1,332.2-63.1c0,0-154,49.8-299.9,49.8Z"
                  fill="#fff"></path>
              </g>
              <g>
                <path
                  d="M767.8,21.1c144.9,0,203.7,48.1,247.7,92C998,69.1,943.7,0,774.4,0s-338.9,84.3-338.9,84.3c0,0,184.8-63.1,332.2-63.1Z"
                  fill="#fff"></path>
                <path
                  d="M735.5,34.4c228.7,0,234.4,114.3,234.4,114.3,2.3,14.9,12.1,26.9,26.9,26.9s26.9-12.1,26.9-26.9c0,0-.1-15.1-8.3-35.6-44-43.9-102.8-92-247.7-92s-332.2,63.1-332.2,63.1c0,0,154-49.8,299.9-49.8Z"
                  fill="#fff"></path>
              </g>
              <g>
                <path
                  d="M203.9,462l2.7-18.4c.7-4.8,1.7-11,3-17.4h-.2c-2.5,5.8-5.2,11.9-7.7,16.8l-9.1,18.3h-7.4l-1.6-18.1c-.4-4.9-.7-11.1-1-17h-.1c-1.3,5.9-2.6,12.7-3.7,17.4l-4.4,18.4h-8.7l11.2-44.7h12.8l1.4,17c.3,4.2.7,9.2.8,14.2h.3c1.7-5,4.1-10.2,6-14.2l8.3-17h12.9l-6,44.7h-9.3Z"
                  fill="#fff"></path>
                <path
                  d="M259.8,450.4l-5.2,11.6h-10.2l21.8-44.7h12.3l5.2,44.7h-10l-.9-11.6h-12.9ZM272.2,443.1l-.9-9.6c-.2-2.5-.4-6-.6-8.7h-.2c-1.1,2.7-2.4,6.2-3.6,8.7l-4.4,9.6h9.6Z"
                  fill="#fff"></path>
                <path d="M332.7,417.4l-8.5,44.7h-9.5l8.5-44.7h9.5Z" fill="#fff"></path>
                <path
                  d="M366.1,462l-1.7-44.7h9.7v19.9c0,5.4-.1,10.5-.3,14.5h.1c1.6-4.4,3.2-8.9,5.2-14.4l8-20h10.5v19.9c-.2,5.4-.3,9.8-.6,14.2h.1c1.5-4.6,3.2-9.4,5-14.2l7.7-19.9h10.1l-19.7,44.7h-10.4l-.3-18.3c0-5.3,0-9.8.3-14.8h-.1c-1.6,4.8-3.2,9.6-5.4,15l-7.7,18.1h-10.6Z"
                  fill="#fff"></path>
                <path
                  d="M451.7,418.2c2.8-.7,7.3-1.1,11.6-1.1s8.6.7,11.9,3c3,2,4.8,5.2,4.8,9.5s-2.6,9.9-6,12.5c-3.6,2.8-8.9,4.2-14.3,4.2s-2.9-.2-3.9-.3l-3,16h-9.3l8.3-43.8ZM457.2,438.2c1.1.2,2.1.3,3.7.3,5.7,0,9.5-3.6,9.5-8.1s-3-5.6-6.8-5.6-3.1.1-3.9.3l-2.5,13.2Z"
                  fill="#fff"></path>
              </g>
            </svg>
          </svg>
        </g>
      </g>
    </svg>
  </g>
</svg>